<svg xmlns="http://www.w3.org/2000/svg" width="560.002" height="559.996" viewBox="0 0 560.002 559.996">
  <g id="Group_13558" data-name="Group 13558" transform="translate(17643 -21261)">
    <g id="Group_13557" data-name="Group 13557">
      <path id="Path_24239" data-name="Path 24239" d="M355.51,251.2A107.039,107.039,0,1,0,378.8,274.495l-48.113,48.113A41.156,41.156,0,1,1,307.4,299.315ZM460.8,192.5a221.489,221.489,0,0,1,53.91,145.15c0,122.8-99.551,222.35-222.36,222.35S70,460.45,70,337.651s99.551-222.36,222.35-222.36A221.485,221.485,0,0,1,437.5,169.2l-58.484,58.484a139.976,139.976,0,1,0,23.293,23.293Zm0,0,27.789-27.789h75.566a8.211,8.211,0,0,0,8.2-8.312V140.083a8.261,8.261,0,0,0-8.215-8.312H521.53l24.707-24.707H621.8a8.213,8.213,0,0,0,8.2-8.312V82.435a8.263,8.263,0,0,0-8.215-8.312h-65.9V8.221A8.221,8.221,0,0,0,547.573.006H531.257a8.253,8.253,0,0,0-8.312,8.2V83.771l-24.707,24.707V65.869a8.216,8.216,0,0,0-8.312-8.215H473.609a8.25,8.25,0,0,0-8.312,8.2V141.42l-27.789,27.789A223.827,223.827,0,0,1,460.8,192.5Z" transform="translate(-17713 21260.994)" fill-rule="evenodd"/>
    </g>
  </g>
</svg>
