<svg xmlns="http://www.w3.org/2000/svg" xmlns:xlink="http://www.w3.org/1999/xlink" width="100.904" height="107.631" viewBox="0 0 100.904 107.631">
  <defs>
    <clipPath id="clip-path">
      <rect id="Rectangle_2394" data-name="Rectangle 2394" width="100.904" height="107.631" transform="translate(155 354)" fill="#fff"/>
    </clipPath>
  </defs>
  <g id="Mask_Group_72" data-name="Mask Group 72" transform="translate(-155 -354)" clip-path="url(#clip-path)">
    <g id="Group_5746" data-name="Group 5746" transform="translate(158.927 357.772)">
      <g id="Group_5730" data-name="Group 5730" transform="translate(0 6.703)">
        <path id="Path_5093" data-name="Path 5093" d="M1518.5,660.108v103.68a8.473,8.473,0,0,1-8.472,8.473h-77.663a8.466,8.466,0,0,1-8.318-8.472V660.108a8.473,8.473,0,0,1,8.471-8.474h77.51A8.473,8.473,0,0,1,1518.5,660.108Z" transform="translate(-1424.05 -651.634)" fill="#1b4800"/>
      </g>
      <g id="Group_5731" data-name="Group 5731" transform="translate(6.922 13.421)">
        <path id="Path_5094" data-name="Path 5094" d="M1532.52,756.858v99.757l5.748,5.748h75.621V756.858Z" transform="translate(-1532.52 -756.858)"/>
      </g>
      <g id="Group_5732" data-name="Group 5732" transform="translate(16.918 73.933)">
        <path id="Path_5095" data-name="Path 5095" d="M1705.049,1655.595a7.975,7.975,0,1,1-7.974-7.975A7.974,7.974,0,0,1,1705.049,1655.595Z" transform="translate(-1689.1 -1647.62)" fill="#399900"/>
      </g>
      <g id="Group_5733" data-name="Group 5733" transform="translate(20.388 77.728)">
        <path id="Path_5096" data-name="Path 5096" d="M1746.784,1715.414l-3.319-3.6L1745,1710.4l1.679,1.82,4.17-5.169,1.625,1.311Z" transform="translate(-1743.465 -1707.052)" fill="#fff"/>
      </g>
      <g id="Group_5734" data-name="Group 5734" transform="translate(37.812 84.009)">
        <path id="Path_5097" data-name="Path 5097" d="M2017.793,1805.459h27.118a1.387,1.387,0,1,1,0,2.773h-27.118a1.387,1.387,0,0,1,0-2.773Z" transform="translate(-2016.407 -1805.459)" fill="#399900"/>
      </g>
      <g id="Group_5735" data-name="Group 5735" transform="translate(37.812 77.035)">
        <path id="Path_5098" data-name="Path 5098" d="M2017.793,1696.194h32.117a1.386,1.386,0,0,1,1.385,1.386h0a1.386,1.386,0,0,1-1.385,1.387h-32.117a1.387,1.387,0,0,1-1.386-1.387h0A1.387,1.387,0,0,1,2017.793,1696.194Z" transform="translate(-2016.407 -1696.194)" fill="#91e162"/>
      </g>
      <g id="Group_5736" data-name="Group 5736" transform="translate(16.918 50.383)">
        <path id="Path_5099" data-name="Path 5099" d="M1705.049,1286.661a7.975,7.975,0,1,1-7.974-7.975A7.975,7.975,0,0,1,1705.049,1286.661Z" transform="translate(-1689.1 -1278.686)" fill="#399900"/>
      </g>
      <g id="Group_5737" data-name="Group 5737" transform="translate(20.388 54.176)">
        <path id="Path_5100" data-name="Path 5100" d="M1746.784,1346.473l-3.319-3.6,1.534-1.416,1.679,1.819,4.17-5.169,1.625,1.311Z" transform="translate(-1743.465 -1338.111)" fill="#fff"/>
      </g>
      <g id="Group_5738" data-name="Group 5738" transform="translate(37.812 53.483)">
        <path id="Path_5101" data-name="Path 5101" d="M2036.463,1330.026h-18.669a1.387,1.387,0,0,1,0-2.773h18.669a1.387,1.387,0,1,1,0,2.773Z" transform="translate(-2016.407 -1327.252)" fill="#399900"/>
      </g>
      <g id="Group_5739" data-name="Group 5739" transform="translate(37.812 60.459)">
        <path id="Path_5102" data-name="Path 5102" d="M2044.911,1439.291h-27.118a1.387,1.387,0,0,1,0-2.774h27.118a1.387,1.387,0,1,1,0,2.774Z" transform="translate(-2016.407 -1436.517)" fill="#91e162"/>
      </g>
      <g id="Group_5740" data-name="Group 5740" transform="translate(16.918 28.529)">
        <path id="Path_5103" data-name="Path 5103" d="M1705.049,944.307a7.975,7.975,0,1,1-7.974-7.974A7.975,7.975,0,0,1,1705.049,944.307Z" transform="translate(-1689.1 -936.333)" fill="#399900"/>
      </g>
      <g id="Group_5741" data-name="Group 5741" transform="translate(20.388 32.325)">
        <path id="Path_5104" data-name="Path 5104" d="M1746.784,1004.127l-3.319-3.6,1.534-1.416,1.679,1.819,4.17-5.168,1.625,1.311Z" transform="translate(-1743.465 -995.766)" fill="#fff"/>
      </g>
      <g id="Group_5742" data-name="Group 5742" transform="translate(37.812 31.63)">
        <path id="Path_5105" data-name="Path 5105" d="M2044.911,987.672h-27.118a1.387,1.387,0,0,1,0-2.774h27.118a1.387,1.387,0,1,1,0,2.774Z" transform="translate(-2016.407 -984.899)" fill="#91e162"/>
      </g>
      <g id="Group_5743" data-name="Group 5743" transform="translate(37.812 38.606)">
        <path id="Path_5106" data-name="Path 5106" d="M2049.91,1096.945h-32.117a1.387,1.387,0,0,1,0-2.773h32.117a1.387,1.387,0,0,1,0,2.773Z" transform="translate(-2016.407 -1094.172)" fill="#399900"/>
      </g>
      <g id="Group_5744" data-name="Group 5744" transform="translate(31.161 0)">
        <path id="Path_5107" data-name="Path 5107" d="M1942.767,550.428h-7.535a1.6,1.6,0,0,1-1.6-1.6,2.206,2.206,0,0,0-2.2-2.2h-6.245a2.206,2.206,0,0,0-2.2,2.2,1.6,1.6,0,0,1-1.6,1.6h-7.534a1.608,1.608,0,0,0-1.61,1.609v9.677a1.606,1.606,0,0,0,.841,1.414,1.569,1.569,0,0,0,.769.2h28.908a1.61,1.61,0,0,0,1.609-1.611v-9.677A1.609,1.609,0,0,0,1942.767,550.428Z" transform="translate(-1912.249 -546.631)" fill="#7c7c7c"/>
      </g>
    </g>
  </g>
</svg>
